<?xml version="1.0" encoding="utf-8"?>
<!-- Generator: Adobe Illustrator 26.0.1, SVG Export Plug-In . SVG Version: 6.00 Build 0)  -->
<svg version="1.1" id="Layer_1" xmlns="http://www.w3.org/2000/svg" xmlns:xlink="http://www.w3.org/1999/xlink" x="0px" y="0px"
	 viewBox="0 0 1075 841.89" style="enable-background:new 0 0 1075 841.89;" xml:space="preserve">
<style type="text/css">
	.st0{fill:#021F5F;}
	.st1{fill:#FDFFFF;}
	.st2{font-family:'Arial-Black';}
	.st3{font-size:22.0197px;}
	.st4{fill:#001F5F;}
	.st5{font-size:75.2813px;}
	.st6{font-size:70.379px;}
	.st7{fill:#FFFFFF;}
	.st8{font-family:'ArialMT';}
	.st9{font-size:29.9098px;}
</style>
<g>
	<path class="st0" d="M851.43,318.35c0,0,94.99,3,111.99,75c0,0,28,88.99-100.99,109.99H219.48c0,0-85.99-1.8-107.99-82.39
		c0,0-7-83.6,103.99-102.59h613.96v-43c0,0-163.99-53-389.97-34s-311.98,96.99-311.98,96.99s-131.99,94.99,54,187.99
		s465.97,63,465.97,63s141.99-6,272.98-75.99s54-155.99,54-155.99s-33-41-120.99-72L851.43,318.35z"/>
	<path class="st0" d="M861.18,288.16c0,0-22.38-10.6-40.57-15.43v41.3v4.32H857L861.18,288.16z"/>
</g>
<g>
	<text transform="matrix(1.0263 0 0 1 471.0723 290.923)" class="st1 st2 st3">EST. 2025</text>
</g>
<g>
	<text transform="matrix(2.3232 0 0 1 232.3805 407.6717)" class="st4 st2 st5">INSTA</text>
</g>
<text transform="matrix(1.453 0 0 1 375.2061 478.5744)" class="st0 st2 st6">SKUL</text>
<text transform="matrix(1.0312 0 0 1 340.0996 551.6418)" class="st7 st8 st9">Learning management system</text>
</svg>
