<svg xmlns="http://www.w3.org/2000/svg" xmlns:xlink="http://www.w3.org/1999/xlink" xmlns:inkscape="http://www.inkscape.org/namespaces/inkscape" version="1.1" width="1075" height="841.89" viewBox="0 0 1075 841.89">
<defs>
<clipPath id="clip_0">
<path transform="matrix(1,0,0,-1,0,841.89)" d="M0 841.89H1075V0H0Z"/>
</clipPath>
</defs>
<g inkscape:groupmode="layer" inkscape:label="Layer 1">
<g clip-path="url(#clip_0)">
<path transform="matrix(1,0,0,-1,851.433,318.35084)" d="M0 0C0 0 94.994-3 111.992-74.995 111.992-74.995 139.991-163.989 10.999-184.988H-631.958C-631.958-184.988-717.952-183.19-739.951-102.594-739.951-102.594-746.95-18.999-635.958 0H-21.999V42.997C-21.999 42.997-185.988 95.994-411.973 76.995-637.958 57.996-723.952-19.999-723.952-19.999-723.952-19.999-855.943-114.992-669.955-207.986-483.968-300.98-203.986-270.982-203.986-270.982-203.986-270.982-61.996-264.982 68.995-194.987 199.987-124.992 122.992-38.997 122.992-38.997 122.992-38.997 89.994 2 2 32.998Z" fill="#021f5f"/>
<path transform="matrix(1,0,0,-1,861.1849,288.16194)" d="M0 0C0 0-22.379 10.596-40.569 15.427V-25.871-30.189H-4.185Z" fill="#021f5f"/>
</g>
<text fill="#fdffff" xml:space="preserve" transform="matrix(1.0130441 0 -0 .98712387 0 841.89)" font-size="22.306927" font-family="Arial"><tspan y="-558.1537" x="465.00669 481.11228 497.21788 509.91947 517.34768 524.7759 539.6546 554.5333 569.41207">EST. 2025</tspan></text>
<text fill="#001f5f" xml:space="preserve" transform="matrix(1.3004545 0 -0 .76896199 0 841.89)" font-size="66.743358" font-family="Arial"><tspan y="-610.2186" x="294.93638 320.89955 376.49678 424.6855 468.35566">INSTA</tspan></text>
<text fill="#021f5f" xml:space="preserve" transform="matrix(1.3212103 0 -0 .75688186 0 841.89)" font-size="179.39749" font-family="Arial"><tspan y="-459.44438" x="134.1218 263.64683 413.08494 562.5231">SKUL</tspan></text>
<text fill="#ffffff" xml:space="preserve" transform="matrix(1.0154606 0 -0 .98477467 0 841.89)" font-size="30.372227" font-family="ArialMT"><tspan y="-294.73545" x="334.9215 351.80848 368.69544 385.5824 395.69636 412.5833 419.32597 436.21293 453.09986 461.54338 486.8434 503.73039 520.6174 537.50436 554.39138 571.2783 596.5784 613.4654 630.35238 638.7959 647.2394 662.4255 677.6116 692.7977 701.2412 718.1282">Learning management system</tspan></text>
</g>
</svg>
